<?xml version="1.0" standalone="no"?>
<!DOCTYPE svg PUBLIC "-//W3C//DTD SVG 20010904//EN"
 "http://www.w3.org/TR/2001/REC-SVG-20010904/DTD/svg10.dtd">
<svg version="1.0" xmlns="http://www.w3.org/2000/svg"
 width="1024.000000pt" height="1024.000000pt" viewBox="0 0 1024.000000 1024.000000"
 preserveAspectRatio="xMidYMid meet">

<g transform="translate(0.000000,1024.000000) scale(0.100000,-0.100000)"
fill="#000000" stroke="none">
<path d="M0 5120 l0 -5120 5120 0 5120 0 0 5120 0 5120 -5120 0 -5120 0 0
-5120z m8390 1710 c95 -47 146 -122 135 -196 -8 -57 -56 -121 -108 -145 -41
-18 -120 -19 -3322 -19 l-3280 0 -50 28 c-64 35 -95 81 -95 141 1 85 50 155
135 193 33 14 2225 24 5090 22 l1450 -1 45 -23z m-6068 -855 c41 -53 130 -231
218 -430 29 -66 88 -200 132 -298 43 -97 104 -243 134 -325 31 -81 72 -184 92
-229 19 -46 32 -86 28 -90 -4 -5 -67 -9 -140 -11 -101 -3 -135 0 -142 10 -17
21 -89 206 -119 303 -15 50 -36 107 -46 127 -10 20 -32 74 -49 119 -32 88
-147 309 -161 309 -18 0 -82 -150 -94 -222 -7 -35 -5 -37 21 -43 63 -13 90
-36 141 -118 56 -90 93 -160 93 -177 0 -7 -46 -10 -142 -8 l-143 3 -19 52
c-16 45 -21 51 -36 43 -24 -13 -132 -206 -165 -295 -15 -38 -30 -73 -34 -78
-8 -8 -278 7 -287 15 -8 9 63 172 183 418 63 129 123 258 133 285 10 28 39 97
65 155 26 58 60 134 75 170 69 165 187 371 210 367 8 -1 31 -25 52 -52z m942
46 c67 -16 126 -90 126 -158 0 -16 -10 -46 -21 -68 -21 -39 -21 -46 -13 -235
5 -107 9 -370 9 -585 l0 -390 -126 -3 c-110 -2 -129 0 -144 15 -17 16 -17 55
-12 603 4 507 3 591 -10 633 -14 43 -14 51 2 92 17 46 48 74 100 93 38 13 42
13 89 3z m999 -27 c94 -21 201 -72 256 -123 l43 -40 -21 -28 c-12 -15 -47 -65
-78 -110 l-56 -82 -26 18 c-51 36 -167 89 -223 101 -68 15 -152 2 -198 -30
-34 -24 -54 -84 -44 -127 15 -65 55 -84 312 -147 165 -41 226 -70 287 -139 70
-77 90 -139 90 -282 0 -116 -1 -123 -33 -187 -43 -87 -126 -165 -218 -204 -65
-27 -77 -28 -214 -29 -172 0 -238 15 -348 77 -40 23 -105 73 -145 110 l-72 68
25 18 c50 35 135 114 158 147 l25 34 52 -47 c191 -174 505 -170 505 6 0 84
-59 123 -271 176 -235 60 -303 95 -367 190 -121 180 -82 432 85 547 51 36 148
77 207 89 69 13 194 11 269 -6z m1445 1 c68 -21 162 -76 162 -96 0 -9 -7 -23
-16 -30 -36 -29 -165 -190 -240 -298 -98 -142 -144 -194 -189 -215 -34 -16
-35 -19 -35 -71 0 -62 -13 -103 -36 -112 -9 -3 -42 3 -74 13 -50 16 -60 23
-62 44 -3 22 -9 25 -46 28 -41 3 -45 7 -115 100 -106 140 -169 230 -228 324
-28 46 -76 116 -107 155 -42 57 -55 81 -56 110 l-1 38 50 1 c28 1 89 4 136 8
l86 8 59 -83 c33 -46 65 -95 73 -109 35 -63 137 -192 162 -206 43 -22 57 -17
80 28 11 22 37 62 57 89 21 26 60 80 87 120 102 148 123 169 164 169 21 0 61
-7 89 -15z m554 -37 c72 -85 231 -308 382 -533 77 -115 161 -232 187 -260 25
-27 60 -72 77 -100 17 -27 53 -72 81 -98 27 -26 68 -73 92 -103 46 -59 57
-101 58 -216 l1 -56 -112 -4 c-62 -2 -118 -1 -125 2 -14 6 -77 92 -129 175
-82 131 -109 172 -150 220 -42 51 -90 118 -305 430 -121 177 -168 231 -177
207 -2 -8 -18 -29 -34 -48 l-29 -33 19 -43 c18 -42 76 -132 147 -232 l35 -48
0 -313 0 -312 -31 -7 c-59 -11 -237 -7 -246 6 -4 7 -8 281 -9 608 -1 514 1
598 14 620 20 32 183 189 198 190 6 0 32 -24 56 -52z m855 28 c11 -10 16 -915
6 -990 l-8 -59 -29 53 c-16 30 -58 91 -93 137 -35 46 -83 112 -108 149 l-45
65 0 227 c0 125 3 271 7 324 6 95 7 97 32 102 42 7 229 1 238 -8z m1096 -2
c114 -29 207 -84 288 -169 73 -77 74 -82 20 -126 -25 -20 -66 -57 -91 -83 -24
-25 -47 -46 -52 -46 -4 0 -33 23 -65 51 -81 72 -149 101 -249 107 -226 13
-382 -133 -401 -375 -16 -196 77 -369 237 -442 67 -31 78 -33 150 -29 121 7
232 71 286 163 11 19 11 19 40 1 16 -11 66 -48 112 -83 63 -49 82 -70 82 -88
0 -17 -24 -49 -78 -104 -62 -63 -95 -86 -162 -119 -111 -52 -173 -66 -300 -66
-127 0 -205 20 -293 77 -180 115 -281 248 -333 438 -14 49 -18 103 -19 234 0
152 2 177 23 237 62 180 245 342 467 414 87 29 245 32 338 8z m-2819 -1151 l6
-241 -103 -7 c-114 -8 -159 -2 -179 22 -16 20 -22 225 -11 363 l8 95 35 -2
c106 -6 141 -3 181 15 30 13 46 15 50 8 4 -6 9 -120 13 -253z m2998 -742 c45
-17 117 -90 129 -130 13 -44 1 -101 -34 -152 -30 -46 -114 -90 -169 -90 -24 0
-1449 0 -3168 -1 -1719 -1 -3165 -1 -3215 -1 -109 2 -147 16 -204 78 -82 89
-88 145 -25 222 71 86 -83 77 1474 83 2241 8 5181 3 5212 -9z"/>
</g>
</svg>
